<svg xmlns="http://www.w3.org/2000/svg" width="17.225" height="21" viewBox="0 0 17.225 21">
  <g id="apple" transform="translate(-46.022)">
    <path id="Tracciato_44" data-name="Tracciato 44" d="M51.733,134.775c-3.125-.019-5.711-6.657-5.711-10.038,0-5.523,3.982-6.732,5.516-6.732a6.146,6.146,0,0,1,2.081.533,4.513,4.513,0,0,0,1.188.354,3.6,3.6,0,0,0,.853-.288,6.618,6.618,0,0,1,2.57-.646h.006a5.189,5.189,0,0,1,4.408,2.316l.321.5-.463.363a4.074,4.074,0,0,0-1.867,3.34,3.778,3.778,0,0,0,2.022,3.485c.29.181.589.368.589.777,0,.267-2.048,6-5.021,6a3.912,3.912,0,0,1-1.7-.428,3.331,3.331,0,0,0-1.509-.378,3.763,3.763,0,0,0-1.2.336,5.665,5.665,0,0,1-2.073.5Z" transform="translate(0 -113.775)"/>
    <path id="Tracciato_45" data-name="Tracciato 45" d="M258.566,0c.067,2.414-1.66,4.089-3.384,3.984A3.847,3.847,0,0,1,258.566,0Z" transform="translate(-200.209)"/>
  </g>
</svg>
