<svg xmlns="http://www.w3.org/2000/svg" width="262.2" height="274.264" viewBox="0 0 262.2 274.264">
  <g id="drawkit-developer-woman-colour" transform="translate(-284.81 -253.592)">
    <g id="Layer_3" data-name="Layer 3" transform="translate(294.114 253.592)">
      <path id="Tracciato_12" data-name="Tracciato 12" d="M388.246,253.628c6.052.322,14.712,5.12,14.712,13.483s-8.718,11.647-16.551,13.011c5.314,6.334,7.493,7.559,6.948,10.283s-5.449,10.217-5.851,18.8-23.7,55.782-28.129,57.147,4.3,10.093-26.22,11.073c-8.137,0-22.9-12.068-22.9-27.792-.366-34.276,35.26-40.782,55.069-79.022C374.416,253.057,385.438,253.474,388.246,253.628Z" transform="translate(-310.252 -253.592)"/>
    </g>
    <path id="Tracciato_13" data-name="Tracciato 13" d="M284.81,695.14h262.2V807.934H284.81Z" transform="translate(0 -280.078)" fill="#f3f3f3"/>
    <path id="Tracciato_14" data-name="Tracciato 14" d="M369.18,768.09H577.872" transform="translate(-53.517 -326.351)" fill="none" stroke="#fff" stroke-linecap="round" stroke-linejoin="round" stroke-width="12.98"/>
    <path id="Tracciato_15" data-name="Tracciato 15" d="M725.92,770.531l7.4-4.271,5.24,9.084-7.4,4.268Z" transform="translate(-279.8 -325.19)" fill="#e49d75"/>
    <path id="Tracciato_16" data-name="Tracciato 16" d="M415.67,850H579.916" transform="translate(-83.006 -378.307)" fill="none" stroke="#fff" stroke-linecap="round" stroke-linejoin="round" stroke-width="12.98"/>
    <path id="Tracciato_17" data-name="Tracciato 17" d="M567.425,824.87l7.705,3.7-4.5,9.438-7.709-3.682Z" transform="translate(-176.408 -362.367)" fill="#e49d75"/>
    <path id="Tracciato_18" data-name="Tracciato 18" d="M677.315,605.85c7.5,0,18.522,44.925,23.262,58.1-.991,2.757-6.615,7.051-9.7,7.051-5.953-9.976-19.29-31.362-21.66-34.667C667.317,633.7,669.818,605.85,677.315,605.85Z" transform="translate(-243.446 -223.441)" fill="#a74bc9"/>
    <path id="Tracciato_19" data-name="Tracciato 19" d="M684.69,360.411c1.28-.8.677-.263,1.686-1.741" transform="translate(-253.647 -66.652)" opacity="0.27" style="isolation: isolate"/>
    <path id="Tracciato_20" data-name="Tracciato 20" d="M436.762,583.222c-6.5,0-11.852-1.4-11.852,13.9s16.7,28.037,36.514,28.037,28.586-.526,30.393-.965c.534,5.058-11.146,39.714-12.4,48.637.9,2.384,6.692,5.354,9.142,5.354s35.048-52.948,34.2-85.667c.113-5.12-18.72-6.535-30.619-6.535s-37.227,1.371-40.431,1.371" transform="translate(-88.867 -209.066)" fill="#c16be1"/>
    <path id="Tracciato_21" data-name="Tracciato 21" d="M429.748,456.813c-.826-3.4-5.281-76.568,21.44-75.263s26.447,66.5,23.4,76.8C462.4,463.509,430.618,460.408,429.748,456.813Z" transform="translate(-91.437 -81.154)" fill="#8ea8ff"/>
    <path id="Tracciato_22" data-name="Tracciato 22" d="M489.416,347.446a66.981,66.981,0,0,0-3.108,8.488c-.421,2.172-11.907-.574-11.263-1.66,3.8-6.422,4.425-13.165,5.043-16.54C480.655,334.646,492.2,340.834,489.416,347.446Z" transform="translate(-120.651 -52.853)" fill="#d18c65"/>
    <path id="Tracciato_23" data-name="Tracciato 23" d="M475.485,483.25,459,485.005c-1.123,1.382-.636,4.652-.655,6.334-.073,6.217.2,13.165,3.964,18.4,1.463,2.037,3.858,4.023,6.217,3.99,3.693,1.463,9.855,3.149,9.855,3.149l9.351,2.063s15.776,2.8,23.565,2.615c2.593-.066,5.229-.366,7.819-.293,1.5.04,3.887.508,5.292,0,.41-.15.311-1.053.212-1.408a4.687,4.687,0,0,0-2.611-2.651c-2.531-1.258-3.964-.461-6.561-.417-2.125.037-4.659-1.046-8.345-2.49-4.348-1.7-9.307-3.785-13.739-5.277-5.05-1.7-10.2-3.536-15.132-5.555-.973-.4-2.008-.688-3.028-1.006a53.336,53.336,0,0,0,.79-8.045,48.6,48.6,0,0,0-.267-8.879A8.59,8.59,0,0,0,475.485,483.25Z" transform="translate(-110.018 -145.674)" fill="#e49d75"/>
    <path id="Tracciato_24" data-name="Tracciato 24" d="M446.383,433.163c-2.8-7.453-.366-30.747,8.74-32.272,12.668-1.88,16.456,27.551,15.2,30.992C468.083,433.228,455.525,437.679,446.383,433.163Z" transform="translate(-101.79 -93.378)" fill="#748ee5"/>
    <path id="Tracciato_25" data-name="Tracciato 25" d="M506.588,297a38.145,38.145,0,0,1-25.178,10.525,3.145,3.145,0,0,0-.68,1.942,3.291,3.291,0,0,0,2.812,3.24c.815,4.984,3.452,8.89,7.336,10.071,6.217,1.894,13.315-3.939,15.831-13.03A21.8,21.8,0,0,0,506.588,297Z" transform="translate(-124.274 -27.534)" fill="#e49d75"/>
    <path id="Tracciato_26" data-name="Tracciato 26" d="M577.93,589c6.582,0,30.352-.19,34.715-.19" transform="translate(-185.929 -212.632)" fill="#ffc88e"/>
    <path id="Tracciato_27" data-name="Tracciato 27" d="M566.81,534.218c6.948,0,30.93-.567,34.909-.567,3.086-4.754,17.421-29.8,18.369-31.691" transform="translate(-178.875 -157.542)" fill="none" stroke="#9d9d9d" stroke-linecap="round" stroke-linejoin="round" stroke-width="5.79"/>
    <path id="Tracciato_28" data-name="Tracciato 28" d="M557.3,844.43l-5.017,9.588,25.525,13.355,1.423-2.717L566.59,849.3Z" transform="translate(-169.659 -374.774)"/>
    <path id="Tracciato_29" data-name="Tracciato 29" d="M736,781.879l5.577,9.274,24.688-14.843-1.58-2.629-19.7,2.794Z" transform="translate(-286.194 -329.897)"/>
    <path id="Tracciato_30" data-name="Tracciato 30" d="M334.862,758.05,318.49,741.682l16.372-16.372" transform="translate(-21.364 -299.215)" fill="none" stroke="#dfdfdf" stroke-linecap="round" stroke-linejoin="round" stroke-width="12.98"/>
    <path id="Tracciato_31" data-name="Tracciato 31" d="M919.244,917.977l16.365-16.368L919.24,885.24" transform="translate(-402.425 -400.66)" fill="none" stroke="#dfdfdf" stroke-linecap="round" stroke-linejoin="round" stroke-width="12.98"/>
    <path id="Tracciato_32" data-name="Tracciato 32" d="M369.18,929.45H557.324" transform="translate(-53.517 -428.703)" fill="none" stroke="#fff" stroke-linecap="round" stroke-linejoin="round" stroke-width="12.98"/>
  </g>
</svg>
